<svg width="59" height="67" viewBox="0 0 59 67" fill="none" xmlns="http://www.w3.org/2000/svg">
<path d="M41.8364 32.83C45.8591 29.346 48.2727 24.254 48.2727 18.76C48.2727 8.442 39.825 0 29.5 0C19.175 0 10.7273 8.442 10.7273 18.76C10.7273 24.254 13.1409 29.346 17.1636 32.83C7.24091 35.376 0 44.354 0 54.94V62.98C0 65.258 1.74318 67 4.02273 67H54.9773C57.2568 67 59 65.258 59 62.98V54.94C59 44.354 51.7591 35.376 41.8364 32.83ZM56.3182 62.98C56.3182 63.784 55.7818 64.32 54.9773 64.32H4.02273C3.21818 64.32 2.68182 63.784 2.68182 62.98V54.94C2.68182 44.622 10.325 36.046 20.65 34.974L24.5386 34.572L21.1864 32.562C16.3591 29.48 13.4091 24.388 13.4091 18.76C13.4091 9.916 20.65 2.68 29.5 2.68C38.35 2.68 45.5909 9.916 45.5909 18.76C45.5909 24.388 42.6409 29.48 37.8136 32.428L34.4614 34.438L38.35 34.84C48.675 36.046 56.3182 44.622 56.3182 54.94V62.98Z" fill="#CCCCCC"/>
</svg>
