<svg xmlns="http://www.w3.org/2000/svg" width="100" height="100" fill="none" viewBox="0 0 100 100">
    <path fill="#1FD660" fill-rule="evenodd" d="M20 25c-2.652 0-5.196 1.054-7.071 2.929C11.054 29.804 10 32.348 10 35v40c0 2.652 1.054 5.196 2.929 7.071C14.804 83.946 17.348 85 20 85h60c2.652 0 5.196-1.054 7.071-2.929C88.946 80.196 90 77.652 90 75V35c0-2.652-1.054-5.196-2.929-7.071C85.196 26.054 82.652 25 80 25h-7.93c-1.326 0-2.597-.527-3.535-1.465L62.93 17.93C61.055 16.055 58.512 15 55.86 15H44.14c-2.652 0-5.195 1.055-7.07 2.93l-5.605 5.605C30.527 24.473 29.256 25 27.93 25H20zm30 45c1.97 0 3.92-.388 5.74-1.142 1.82-.754 3.474-1.859 4.867-3.251 1.392-1.393 2.497-3.047 3.251-4.867C64.612 58.92 65 56.97 65 55c0-1.97-.388-3.92-1.142-5.74-.754-1.82-1.858-3.474-3.251-4.867-1.393-1.392-3.047-2.497-4.867-3.251C53.92 40.388 51.97 40 50 40c-3.978 0-7.794 1.58-10.607 4.393C36.58 47.206 35 51.022 35 55c0 3.978 1.58 7.794 4.393 10.607C42.206 68.42 46.022 70 50 70z" clip-rule="evenodd"/>
</svg>
