<svg width="73" height="73" viewBox="0 0 73 73" fill="none" xmlns="http://www.w3.org/2000/svg">
<path d="M12.1667 21.2917H60.8333M57.7917 21.2917L55.1545 58.2236C55.0453 59.7584 54.3585 61.1947 53.2326 62.2434C52.1066 63.292 50.6251 63.875 49.0864 63.875H23.9136C22.3749 63.875 20.8934 63.292 19.7674 62.2434C18.6415 61.1947 17.9547 59.7584 17.8455 58.2236L15.2083 21.2917H57.7917ZM30.4167 33.4583V51.7083V33.4583ZM42.5833 33.4583V51.7083V33.4583ZM45.625 21.2917V12.1667C45.625 11.36 45.3045 10.5863 44.7341 10.0159C44.1637 9.44546 43.39 9.125 42.5833 9.125H30.4167C29.61 9.125 28.8363 9.44546 28.2659 10.0159C27.6955 10.5863 27.375 11.36 27.375 12.1667V21.2917H45.625Z" stroke="#808080" stroke-width="3" stroke-linecap="round" stroke-linejoin="round"/>
</svg>
