<svg xmlns="http://www.w3.org/2000/svg" width="200" height="200" fill="none" viewBox="0 0 200 200">
    <path fill="#fff" d="M43 42H160V159H43z"/>
    <path fill="#3A589B" fill-rule="evenodd" d="M88.85 150.21h20.131v-48.722h13.43L124.19 84.7h-15.209l.021-8.406c0-4.376.418-6.726 6.699-6.726h8.394v-16.79h-13.433c-16.135 0-21.812 8.145-21.812 21.841v10.08H78.793v16.792H88.85v48.719zm12.642 40.836c-49.457 0-89.553-40.096-89.553-89.552 0-49.46 40.096-89.553 89.553-89.553 49.456 0 89.552 40.093 89.552 89.553 0 49.456-40.096 89.552-89.552 89.552z" clip-rule="evenodd"/>
</svg>
