<svg width="42" height="34" viewBox="0 0 42 34" fill="none" xmlns="http://www.w3.org/2000/svg">
<path d="M41.3846 18.5024L26.6836 33.3778C26.3899 33.6749 26.0158 33.8772 25.6084 33.9592C25.2011 34.0411 24.7789 33.9991 24.3952 33.8383C24.0115 33.6775 23.6836 33.4052 23.4528 33.0558C23.222 32.7064 23.0988 32.2956 23.0987 31.8754V25.5355C9.11055 26.017 3.6252 31.2113 3.56892 31.2664C3.24495 31.5847 2.82835 31.7891 2.38071 31.8493C1.93307 31.9095 1.47816 31.8224 1.08325 31.6007C0.688348 31.3791 0.37441 31.0348 0.187866 30.6186C0.00132257 30.2025 -0.0479232 29.7367 0.0474107 29.2901C0.0915136 29.0884 4.51734 9.92866 23.0987 8.57542V2.1246C23.0988 1.70437 23.222 1.2936 23.4528 0.944223C23.6836 0.594843 24.0115 0.322539 24.3952 0.161736C24.7789 0.00093316 25.2011 -0.0411499 25.6084 0.0408084C26.0158 0.122767 26.3899 0.325087 26.6836 0.62219L41.3846 15.4976C41.5797 15.6948 41.7345 15.929 41.8401 16.1868C41.9456 16.4446 42 16.7209 42 17C42 17.2791 41.9456 17.5554 41.8401 17.8132C41.7345 18.071 41.5797 18.3052 41.3846 18.5024Z" fill="#F0C28E"/>
</svg>
