<svg width="67" height="67" viewBox="0 0 67 67" fill="none" xmlns="http://www.w3.org/2000/svg">
<path fill-rule="evenodd" clip-rule="evenodd" d="M35.1814 0.654723L66.0271 28.2986C66.8919 29.1716 67.1802 30.0445 66.8919 30.9175C66.6036 32.0814 65.7388 32.6634 64.5857 32.6634H59.1084V65.5451C59.1084 66.418 58.5319 67 57.667 67H42.6766C40.6587 67 38.929 65.2541 38.929 63.2172V48.9587H28.2628V63.2172C28.2628 65.2541 26.5331 67 24.5152 67H9.52481C8.65998 67 8.08343 66.418 8.08343 65.5451V32.6634H2.60617C1.45307 32.6634 0.588234 31.7904 0.299957 30.9175C-0.276596 30.0445 0.0116801 28.8806 0.876511 28.2986L32.0104 0.654723C32.8752 -0.218241 34.3166 -0.218241 35.1814 0.654723Z" fill="white"/>
</svg>
