<svg xmlns="http://www.w3.org/2000/svg" width="90" height="90" fill="none" viewBox="0 0 90 90">
    <path fill="#CCC" stroke="#CCC" stroke-width=".5" d="M46.004 11.83l.005.006.006.005 30.84 27.639c.82.83 1.048 1.607.8 2.36l-.004.008-.002.01c-.132.532-.39.915-.734 1.167-.345.254-.795.388-1.33.388h-5.727v33.132c0 .38-.124.678-.324.879-.199.201-.492.326-.867.326h-14.99c-1.878 0-3.498-1.632-3.498-3.533V59.71H39.013v14.508c0 1.901-1.62 3.533-3.498 3.533h-14.99c-.375 0-.668-.125-.868-.326-.199-.201-.324-.499-.324-.879V43.413h-5.727c-1.02 0-1.806-.777-2.069-1.574l-.01-.032-.018-.027c-.494-.748-.255-1.761.507-2.274l.014-.01.013-.01 31.133-27.644.006-.006.006-.005c.767-.775 2.049-.775 2.816 0zm21.222 63.51h.25V42.208c0-.38.124-.677.324-.878.199-.201.492-.326.867-.326h6.421l-.489-.437-29.98-26.77-.167-.15-.167.15-29.98 26.77-.49.437H20.237c.375 0 .669.125.868.326.2.2.324.498.324.879V75.34h14.087c.21 0 .481-.099.698-.274.225-.181.417-.466.417-.849v-14.84c0-1.3 1.023-2.078 2.056-2.078h11.82c1.28 0 2.056 1.029 2.056 2.078v14.84c0 .21.097.482.27.701.18.226.462.422.845.422h13.549z"/>
</svg>
