<svg xmlns="http://www.w3.org/2000/svg" width="81" height="81" fill="none" viewBox="0 0 81 81">
    <circle cx="40.5" cy="40.5" r="40.5" fill="#33B18A" fill-opacity=".25"/>
    <g clip-path="url(#clip0)" filter="url(#filter0_d)">
        <path stroke="#fff" stroke-linecap="round" stroke-linejoin="round" stroke-width="4" d="M41 45.222V49m-11.25 7.5h22.5c.995 0 1.948-.398 2.652-1.106.703-.709 1.098-1.67 1.098-2.672V37.89c0-1.002-.395-1.963-1.098-2.671-.704-.709-1.657-1.107-2.652-1.107h-22.5c-.995 0-1.948.398-2.652 1.107-.703.708-1.098 1.669-1.098 2.67v14.834c0 1.002.395 1.963 1.098 2.672.704.708 1.657 1.106 2.652 1.106zM48.5 34.111v-7.555c0-2.004-.79-3.926-2.197-5.343C44.897 19.796 42.99 19 41 19c-1.99 0-3.897.796-5.303 2.213-1.407 1.417-2.197 3.339-2.197 5.343v7.555h15z" shape-rendering="crispEdges"/>
    </g>
    <defs>
        <clipPath id="clip0">
            <path fill="#fff" d="M0 0H56V56H0z" transform="translate(13 11)"/>
        </clipPath>
        <filter id="filter0_d" width="52" height="59.5" x="15" y="10" color-interpolation-filters="sRGB" filterUnits="userSpaceOnUse">
            <feFlood flood-opacity="0" result="BackgroundImageFix"/>
            <feColorMatrix in="SourceAlpha" result="hardAlpha" values="0 0 0 0 0 0 0 0 0 0 0 0 0 0 0 0 0 0 127 0"/>
            <feOffset dy="2"/>
            <feGaussianBlur stdDeviation="4.5"/>
            <feComposite in2="hardAlpha" operator="out"/>
            <feColorMatrix values="0 0 0 0 0 0 0 0 0 0 0 0 0 0 0 0 0 0 0.35 0"/>
            <feBlend in2="BackgroundImageFix" result="effect1_dropShadow"/>
            <feBlend in="SourceGraphic" in2="effect1_dropShadow" result="shape"/>
        </filter>
    </defs>
</svg>
