<svg xmlns="http://www.w3.org/2000/svg" width="100" height="100" fill="none" viewBox="0 0 100 100">
    <path stroke="#fff" stroke-linecap="round" stroke-linejoin="round" stroke-opacity=".7" stroke-width="5" d="M49.72 53.333c.518-.388.938-.891 1.227-1.47.29-.578.44-1.216.44-1.863s-.15-1.285-.44-1.864c-.289-.578-.709-1.081-1.227-1.47L27.5 30c-.62-.464-1.355-.747-2.126-.817-.77-.07-1.546.077-2.238.423s-1.274.878-1.68 1.537c-.407.658-.623 1.416-.623 2.19v33.334c0 .773.216 1.532.622 2.19.407.658.99 1.19 1.681 1.536.692.346 1.467.493 2.238.423.77-.07 1.507-.352 2.126-.816l22.22-16.667zm33.334 0c.517-.388.937-.891 1.227-1.47.289-.578.44-1.216.44-1.863s-.151-1.285-.44-1.864c-.29-.578-.71-1.081-1.227-1.47L60.833 30c-.619-.464-1.355-.747-2.126-.817-.77-.07-1.545.077-2.237.423-.692.346-1.275.878-1.681 1.537-.407.658-.623 1.416-.623 2.19v33.334c0 .773.216 1.532.623 2.19.406.658.989 1.19 1.68 1.536.693.346 1.468.493 2.238.423s1.507-.352 2.126-.816l22.22-16.667z"/>
</svg>
