<svg xmlns="http://www.w3.org/2000/svg" width="100" height="100" fill="none" viewBox="0 0 100 100">
    <path fill="#1FD660" d="M50.5 89.002c2.557-.003 5.051-.807 7.14-2.304 2.087-1.496 3.666-3.611 4.52-6.053H38.84c.853 2.442 2.432 4.557 4.52 6.053 2.088 1.497 4.582 2.301 7.14 2.304zM77.71 73.828c-2.512-5.114-3.825-10.747-3.835-16.46v-12.94c-.025-4.685-1.497-9.245-4.21-13.04-2.712-3.795-6.529-6.635-10.915-8.12v-3.91c0-2.217-.87-4.343-2.416-5.91C54.785 11.88 52.688 11 50.5 11c-2.188 0-4.287.88-5.834 2.448-1.547 1.567-2.416 3.693-2.416 5.91v3.908c-4.387 1.487-8.204 4.326-10.916 8.122-2.713 3.795-4.185 8.355-4.209 13.04v12.94c-.003 2.848-.33 5.686-.972 8.459-.651 2.772-1.613 5.459-2.868 8.009-.207.424-.304.896-.282 1.37.023.472.164.932.41 1.335.247.402.591.735 1 .965.41.23.87.351 1.337.351h49.5c.468 0 .929-.121 1.338-.352.41-.231.754-.564 1-.968.247-.403.388-.864.41-1.338.02-.474-.078-.946-.287-1.37z"/>
</svg>
