<svg width="62" height="64" viewBox="0 0 62 64" fill="none" xmlns="http://www.w3.org/2000/svg">
<path d="M50.7851 26.0406C50.7851 12.2113 39.6401 1 25.8925 1C12.145 1 1 12.2113 1 26.0406C1 39.8699 12.145 51.0812 25.8925 51.0812C32.0004 51.0812 37.5846 48.8601 41.9144 45.1925L59.6166 63L61 61.6084L43.3642 43.8677C47.9402 39.3274 50.7851 33.0221 50.7851 26.0406ZM25.8886 49.1196C13.2392 49.1196 2.94998 38.7692 2.94998 26.0445C2.94998 13.3198 13.2392 2.96944 25.8886 2.96944C38.5381 2.96944 48.8273 13.3198 48.8273 26.0445C48.8312 38.7653 38.5381 49.1196 25.8886 49.1196Z" fill="#CCCCCC" stroke="#CCCCCC" stroke-width="1.7" stroke-linejoin="round"/>
</svg>
