<svg xmlns="http://www.w3.org/2000/svg" width="70" height="70" fill="none" viewBox="0 0 70 70">
    <path fill="#fcee23" d="M68.826 51.09c-6.859-1.786-12.107-5.912-14.772-11.584 0-.003.006-.016.017-.026l6.388-4.979c1.454-1.136 2.04-3.079 1.457-4.833-.69-2.067-2.81-3.31-4.947-2.914l-4.466.8c1.227-7.49-.236-14.137-4.117-18.72C45.156 5.019 40.399 2.918 35 2.918c-5.401 0-10.158 2.102-13.389 5.919-3.884 4.585-5.344 11.238-4.097 18.773-1.91-.345-4.455-.828-4.455-.828-2.16-.428-4.285.814-4.978 2.893-.583 1.75.003 3.687 1.457 4.82l6.413 4.977c-2.67 5.706-7.918 9.832-14.778 11.618L0 51.396l.088 1.213c.091 1.207.546 2.168 1.35 2.856 1.653 1.413 4.23 1.186 6.5.993.955-.083 2.39-.213 2.649-.129 1.105 1.386 1.136 3.45 1.136 3.464v1.458h7.274c1.603 0 3.643 1.13 5.805 2.325 2.972 1.644 6.342 3.509 10.198 3.509 3.856 0 7.226-1.865 10.198-3.51 2.162-1.194 4.202-2.324 5.805-2.324l7.262-.005.011-1.447c0-.02.032-2.084 1.018-3.364.375-.185 1.815-.059 2.767.023 2.268.193 4.848.42 6.501-.993.804-.688 1.259-1.65 1.35-2.856L70 51.396l-1.174-.306z"/>
    <path fill="#fff" d="M48.386 8.834C45.156 5.019 40.399 2.918 35 2.918c-5.401 0-10.158 2.102-13.389 5.919-2.997 3.54-4.533 8.317-4.513 13.774.114-5.154 1.65-9.664 4.514-13.045C24.841 5.749 29.599 3.647 35 3.647c5.399 0 10.155 2.1 13.386 5.916 2.864 3.382 4.4 7.894 4.522 13.033.013-5.441-1.524-10.222-4.522-13.762zM8.08 29.676c-.19.569-.214 1.15-.167 1.725.03-.334.058-.669.167-.996.693-2.08 2.818-3.32 4.978-2.892 0 0 2.546.482 4.455.827-.042-.252-.056-.495-.091-.746-1.899-.343-4.364-.81-4.364-.81-2.16-.43-4.285.813-4.978 2.892zM61.915 29.667c-.69-2.067-2.81-3.31-4.946-2.914l-4.377.784c-.035.25-.049.493-.09.745l4.467-.8c2.136-.396 4.256.848 4.946 2.914.11.328.138.664.167 1 .047-.576.023-1.16-.167-1.73z" opacity=".2"/>
    <path fill="#010101" d="M69.911 51.88c-.09 1.207-.545 2.168-1.35 2.856-1.653 1.413-4.233 1.186-6.5.993-.952-.082-2.393-.208-2.768-.023-.986 1.28-1.017 3.344-1.017 3.364l-.012 1.447-7.262.005c-1.603 0-3.643 1.13-5.805 2.325-2.972 1.644-6.342 3.509-10.198 3.509-3.856 0-7.225-1.865-10.197-3.51-2.163-1.194-4.203-2.324-5.805-2.324h-7.274v.73h7.274c1.602 0 3.642 1.129 5.805 2.324 2.972 1.645 6.341 3.509 10.197 3.509 3.856 0 7.226-1.864 10.198-3.51 2.162-1.194 4.202-2.324 5.805-2.324l7.262-.005.012-1.447c0-.02.03-2.084 1.017-3.364.375-.185 1.816-.058 2.767.023 2.268.194 4.848.42 6.501-.993.805-.688 1.26-1.649 1.35-2.855L70 51.396l-.052-.013-.036.498zM.088 52.61c.091 1.206.546 2.167 1.35 2.855 1.653 1.413 4.23 1.186 6.5.993.955-.083 2.39-.212 2.649-.128 1.105 1.385 1.136 3.449 1.136 3.463v-.729c0-.014-.03-2.078-1.136-3.464-.259-.084-1.694.046-2.648.129-2.27.193-4.848.42-6.501-.993-.804-.688-1.259-1.65-1.35-2.855l-.036-.498-.052.013.088 1.214z" opacity=".1"/>
    <path fill="url(#paint0_linear)" d="M68.826 51.09c-6.859-1.786-12.107-5.912-14.772-11.584 0-.003.006-.016.017-.026l6.388-4.979c1.454-1.136 2.04-3.079 1.457-4.833-.69-2.067-2.81-3.31-4.947-2.914l-4.466.8c1.227-7.49-.236-14.137-4.117-18.72C45.156 5.019 40.399 2.918 35 2.918c-5.401 0-10.158 2.102-13.389 5.919-3.884 4.585-5.344 11.238-4.097 18.773-1.91-.345-4.455-.828-4.455-.828-2.16-.428-4.285.814-4.978 2.893-.583 1.75.003 3.687 1.457 4.82l6.413 4.977c-2.67 5.706-7.918 9.832-14.778 11.618L0 51.396l.088 1.213c.091 1.207.546 2.168 1.35 2.856 1.653 1.413 4.23 1.186 6.5.993.955-.083 2.39-.213 2.649-.129 1.105 1.386 1.136 3.45 1.136 3.464v1.458h7.274c1.603 0 3.643 1.13 5.805 2.325 2.972 1.644 6.342 3.509 10.198 3.509 3.856 0 7.226-1.865 10.198-3.51 2.162-1.194 4.202-2.324 5.805-2.324l7.262-.005.011-1.447c0-.02.032-2.084 1.018-3.364.375-.185 1.815-.059 2.767.023 2.268.193 4.848.42 6.501-.993.804-.688 1.259-1.65 1.35-2.856L70 51.396l-1.174-.306z"/>
    <defs>
        <linearGradient id="paint0_linear" x1="10.239" x2="70.124" y1="24.977" y2="52.902" gradientUnits="userSpaceOnUse">
            <stop stop-color="#fff" stop-opacity=".2"/>
            <stop offset="1" stop-color="#fff" stop-opacity="0"/>
        </linearGradient>
    </defs>
</svg>
