<svg width="41" height="66" viewBox="0 0 41 66" fill="none" xmlns="http://www.w3.org/2000/svg">
<path d="M28.011 1H12.989C6.37354 1 1 6.35814 1 12.9546V64.5475C1 64.6904 1.07165 64.8333 1.19106 64.9167C1.31047 65 1.46571 65.0119 1.609 64.9643L20.5 57.6653L39.391 64.9643C39.4388 64.9881 39.4985 65 39.5582 65C39.6418 65 39.7373 64.9762 39.8089 64.9167C39.9283 64.8333 40 64.6904 40 64.5475V12.9427C40 6.35814 34.6265 1 28.011 1ZM39.1044 63.8927L20.6672 56.7604C20.6194 56.7366 20.5597 56.7247 20.5 56.7247C20.4403 56.7247 20.3925 56.7366 20.3328 56.7604L1.89559 63.8927V12.9427C1.89559 6.84633 6.87507 1.88112 12.989 1.88112H28.011C34.1249 1.88112 39.1044 6.84633 39.1044 12.9427V63.8927Z" stroke="#CCCCCC" stroke-width="1.7"/>
<path d="M20.5 21C24.0885 21 27 18.0885 27 14.5C27 10.9115 24.0885 8 20.5 8C16.9115 8 14 10.9115 14 14.5C14 18.0885 16.9115 21 20.5 21ZM20.5 9.02917C23.5198 9.02917 25.9844 11.4938 25.9844 14.5135C25.9844 17.5333 23.5198 19.9979 20.5 19.9979C17.4802 19.9979 15.0156 17.5333 15.0156 14.5135C15.0156 11.4938 17.4802 9.02917 20.5 9.02917Z" stroke="#CCCCCC" stroke-width="1.5"/>
</svg>
