<svg width="45" height="46" viewBox="0 0 45 46" fill="none" xmlns="http://www.w3.org/2000/svg">
<path d="M43.2873 31.6104C44.418 28.8806 45 25.9547 45 23C45 17.0326 42.6295 11.3097 38.4099 7.0901C34.1903 2.87053 28.4674 0.5 22.5 0.5C16.5326 0.5 10.8097 2.87053 6.5901 7.0901C2.37053 11.3097 0 17.0326 0 23C0 25.9547 0.581979 28.8806 1.71271 31.6104C2.84344 34.3402 4.50078 36.8206 6.5901 38.9099C8.67941 40.9992 11.1598 42.6566 13.8896 43.7873C16.6194 44.918 19.5453 45.5 22.5 45.5C25.4547 45.5 28.3806 44.918 31.1104 43.7873C33.8402 42.6566 36.3206 40.9992 38.4099 38.9099C40.4992 36.8206 42.1566 34.3402 43.2873 31.6104Z" fill="#2F8BE6"/>
<path d="M13.75 24.25L18.75 29.25L31.25 16.75" stroke="white" stroke-width="5" stroke-linecap="round" stroke-linejoin="round"/>
</svg>
